{
    "asset" : {
        "generator" : "Khronos glTF Blender I/O v3.3.27",
        "version" : "2.0"
    },
    "scene" : 0,
    "scenes" : [
        {
            "name" : "Scene",
            "nodes" : [
                0
            ]
        }
    ],
    "nodes" : [
        {
            "mesh" : 0,
            "name" : "Ms23C"
        }
    ],
    "meshes" : [
        {
            "name" : "Cube.002",
            "primitives" : [
                {
                    "attributes" : {
                        "POSITION" : 0,
                        "NORMAL" : 1,
                        "TEXCOORD_0" : 2
                    },
                    "indices" : 3
                }
            ]
        }
    ],
    "accessors" : [
        {
            "bufferView" : 0,
            "componentType" : 5126,
            "count" : 1177,
            "max" : [
                8.5,
                2.299999952316284,
                1.5
            ],
            "min" : [
                -8.5,
                -1.2999999523162842,
                -1.5
            ],
            "type" : "VEC3"
        },
        {
            "bufferView" : 1,
            "componentType" : 5126,
            "count" : 1177,
            "type" : "VEC3"
        },
        {
            "bufferView" : 2,
            "componentType" : 5126,
            "count" : 1177,
            "type" : "VEC2"
        },
        {
            "bufferView" : 3,
            "componentType" : 5123,
            "count" : 2508,
            "type" : "SCALAR"
        }
    ],
    "bufferViews" : [
        {
            "buffer" : 0,
            "byteLength" : 14124,
            "byteOffset" : 0,
            "target" : 34962
        },
        {
            "buffer" : 0,
            "byteLength" : 14124,
            "byteOffset" : 14124,
            "target" : 34962
        },
        {
            "buffer" : 0,
            "byteLength" : 9416,
            "byteOffset" : 28248,
            "target" : 34962
        },
        {
            "buffer" : 0,
            "byteLength" : 5016,
            "byteOffset" : 37664,
            "target" : 34963
        }
    ],
    "buffers" : [
        {
            "byteLength" : 42680,
            "uri" : "Ms23C.bin"
        }
    ]
}
