{
    "asset" : {
        "generator" : "Khronos glTF Blender I/O v3.3.27",
        "version" : "2.0"
    },
    "scene" : 0,
    "scenes" : [
        {
            "name" : "Scene",
            "nodes" : [
                1
            ]
        }
    ],
    "nodes" : [
        {
            "mesh" : 0,
            "name" : "Sleeper.021",
            "translation" : [
                0.001007080078125,
                0,
                0
            ]
        },
        {
            "children" : [
                0
            ],
            "mesh" : 1,
            "name" : "Rail6_2",
            "translation" : [
                433.5460510253906,
                0.30000001192092896,
                109.54299926757812
            ]
        }
    ],
    "meshes" : [
        {
            "name" : "Cube.043",
            "primitives" : [
                {
                    "attributes" : {
                        "POSITION" : 0,
                        "NORMAL" : 1,
                        "TEXCOORD_0" : 2
                    },
                    "indices" : 3
                }
            ]
        },
        {
            "name" : "NurbsPath.022",
            "primitives" : [
                {
                    "attributes" : {
                        "POSITION" : 4,
                        "NORMAL" : 5,
                        "TEXCOORD_0" : 6
                    },
                    "indices" : 7
                }
            ]
        }
    ],
    "accessors" : [
        {
            "bufferView" : 0,
            "componentType" : 5126,
            "count" : 12474,
            "max" : [
                25.956390380859375,
                2.086162567138672e-07,
                31.11046600341797
            ],
            "min" : [
                -0.7936291098594666,
                -0.2800002694129944,
                -0.9117338061332703
            ],
            "type" : "VEC3"
        },
        {
            "bufferView" : 1,
            "componentType" : 5126,
            "count" : 12474,
            "type" : "VEC3"
        },
        {
            "bufferView" : 2,
            "componentType" : 5126,
            "count" : 12474,
            "type" : "VEC2"
        },
        {
            "bufferView" : 3,
            "componentType" : 5123,
            "count" : 18720,
            "type" : "SCALAR"
        },
        {
            "bufferView" : 4,
            "componentType" : 5126,
            "count" : 506,
            "max" : [
                25.731369018554688,
                0.1500002145767212,
                30.856304168701172
            ],
            "min" : [
                -0.5304844975471497,
                -2.4586915969848633e-07,
                -0.6252890229225159
            ],
            "type" : "VEC3"
        },
        {
            "bufferView" : 5,
            "componentType" : 5126,
            "count" : 506,
            "type" : "VEC3"
        },
        {
            "bufferView" : 6,
            "componentType" : 5126,
            "count" : 506,
            "type" : "VEC2"
        },
        {
            "bufferView" : 7,
            "componentType" : 5123,
            "count" : 2496,
            "type" : "SCALAR"
        }
    ],
    "bufferViews" : [
        {
            "buffer" : 0,
            "byteLength" : 149688,
            "byteOffset" : 0,
            "target" : 34962
        },
        {
            "buffer" : 0,
            "byteLength" : 149688,
            "byteOffset" : 149688,
            "target" : 34962
        },
        {
            "buffer" : 0,
            "byteLength" : 99792,
            "byteOffset" : 299376,
            "target" : 34962
        },
        {
            "buffer" : 0,
            "byteLength" : 37440,
            "byteOffset" : 399168,
            "target" : 34963
        },
        {
            "buffer" : 0,
            "byteLength" : 6072,
            "byteOffset" : 436608,
            "target" : 34962
        },
        {
            "buffer" : 0,
            "byteLength" : 6072,
            "byteOffset" : 442680,
            "target" : 34962
        },
        {
            "buffer" : 0,
            "byteLength" : 4048,
            "byteOffset" : 448752,
            "target" : 34962
        },
        {
            "buffer" : 0,
            "byteLength" : 4992,
            "byteOffset" : 452800,
            "target" : 34963
        }
    ],
    "buffers" : [
        {
            "byteLength" : 457792,
            "uri" : "Railyard_Rail6_2.bin"
        }
    ]
}
