{
    "asset" : {
        "generator" : "Khronos glTF Blender I/O v3.3.27",
        "version" : "2.0"
    },
    "scene" : 0,
    "scenes" : [
        {
            "name" : "Scene",
            "nodes" : [
                1
            ]
        }
    ],
    "nodes" : [
        {
            "mesh" : 0,
            "name" : "Sleeper.006"
        },
        {
            "children" : [
                0
            ],
            "mesh" : 1,
            "name" : "Rail6",
            "translation" : [
                -237.31198120117188,
                0.30000001192092896,
                13.992998123168945
            ]
        }
    ],
    "meshes" : [
        {
            "name" : "Cube.026",
            "primitives" : [
                {
                    "attributes" : {
                        "POSITION" : 0,
                        "NORMAL" : 1,
                        "TEXCOORD_0" : 2
                    },
                    "indices" : 3
                }
            ]
        },
        {
            "name" : "NurbsPath.007",
            "primitives" : [
                {
                    "attributes" : {
                        "POSITION" : 4,
                        "NORMAL" : 5,
                        "TEXCOORD_0" : 6
                    },
                    "indices" : 7
                }
            ]
        }
    ],
    "accessors" : [
        {
            "bufferView" : 0,
            "componentType" : 5126,
            "count" : 275760,
            "max" : [
                828.1649169921875,
                2.980232238769531e-07,
                222.40721130371094
            ],
            "min" : [
                -0.45544707775115967,
                -0.280000239610672,
                -8.50000286102295
            ],
            "type" : "VEC3"
        },
        {
            "bufferView" : 1,
            "componentType" : 5126,
            "count" : 275760,
            "type" : "VEC3"
        },
        {
            "bufferView" : 2,
            "componentType" : 5126,
            "count" : 275760,
            "type" : "VEC2"
        },
        {
            "bufferView" : 3,
            "componentType" : 5125,
            "count" : 419328,
            "type" : "SCALAR"
        },
        {
            "bufferView" : 4,
            "componentType" : 5126,
            "count" : 2606,
            "max" : [
                828.0919799804688,
                0.15000027418136597,
                222.25601196289062
            ],
            "min" : [
                -0.26042264699935913,
                -3.129243850708008e-07,
                -8.220002174377441
            ],
            "type" : "VEC3"
        },
        {
            "bufferView" : 5,
            "componentType" : 5126,
            "count" : 2606,
            "type" : "VEC3"
        },
        {
            "bufferView" : 6,
            "componentType" : 5126,
            "count" : 2606,
            "type" : "VEC2"
        },
        {
            "bufferView" : 7,
            "componentType" : 5123,
            "count" : 14256,
            "type" : "SCALAR"
        }
    ],
    "bufferViews" : [
        {
            "buffer" : 0,
            "byteLength" : 3309120,
            "byteOffset" : 0,
            "target" : 34962
        },
        {
            "buffer" : 0,
            "byteLength" : 3309120,
            "byteOffset" : 3309120,
            "target" : 34962
        },
        {
            "buffer" : 0,
            "byteLength" : 2206080,
            "byteOffset" : 6618240,
            "target" : 34962
        },
        {
            "buffer" : 0,
            "byteLength" : 1677312,
            "byteOffset" : 8824320,
            "target" : 34963
        },
        {
            "buffer" : 0,
            "byteLength" : 31272,
            "byteOffset" : 10501632,
            "target" : 34962
        },
        {
            "buffer" : 0,
            "byteLength" : 31272,
            "byteOffset" : 10532904,
            "target" : 34962
        },
        {
            "buffer" : 0,
            "byteLength" : 20848,
            "byteOffset" : 10564176,
            "target" : 34962
        },
        {
            "buffer" : 0,
            "byteLength" : 28512,
            "byteOffset" : 10585024,
            "target" : 34963
        }
    ],
    "buffers" : [
        {
            "byteLength" : 10613536,
            "uri" : "Railyard_Rail6.bin"
        }
    ]
}
