{
    "asset" : {
        "generator" : "Khronos glTF Blender I/O v3.3.27",
        "version" : "2.0"
    },
    "scene" : 0,
    "scenes" : [
        {
            "name" : "Scene",
            "nodes" : [
                0
            ]
        }
    ],
    "nodes" : [
        {
            "mesh" : 0,
            "name" : "StaionBuilding"
        }
    ],
    "meshes" : [
        {
            "name" : "Cube.001",
            "primitives" : [
                {
                    "attributes" : {
                        "POSITION" : 0,
                        "NORMAL" : 1,
                        "TEXCOORD_0" : 2
                    },
                    "indices" : 3
                }
            ]
        }
    ],
    "accessors" : [
        {
            "bufferView" : 0,
            "componentType" : 5126,
            "count" : 2076,
            "max" : [
                71.2320785522461,
                20.170000076293945,
                12.940001487731934
            ],
            "min" : [
                -71.2320785522461,
                -10,
                -25.160003662109375
            ],
            "type" : "VEC3"
        },
        {
            "bufferView" : 1,
            "componentType" : 5126,
            "count" : 2076,
            "type" : "VEC3"
        },
        {
            "bufferView" : 2,
            "componentType" : 5126,
            "count" : 2076,
            "type" : "VEC2"
        },
        {
            "bufferView" : 3,
            "componentType" : 5123,
            "count" : 4584,
            "type" : "SCALAR"
        }
    ],
    "bufferViews" : [
        {
            "buffer" : 0,
            "byteLength" : 24912,
            "byteOffset" : 0,
            "target" : 34962
        },
        {
            "buffer" : 0,
            "byteLength" : 24912,
            "byteOffset" : 24912,
            "target" : 34962
        },
        {
            "buffer" : 0,
            "byteLength" : 16608,
            "byteOffset" : 49824,
            "target" : 34962
        },
        {
            "buffer" : 0,
            "byteLength" : 9168,
            "byteOffset" : 66432,
            "target" : 34963
        }
    ],
    "buffers" : [
        {
            "byteLength" : 75600,
            "uri" : "StaionBuilding.bin"
        }
    ]
}
