{
    "asset" : {
        "generator" : "Khronos glTF Blender I/O v3.3.27",
        "version" : "2.0"
    },
    "scene" : 0,
    "scenes" : [
        {
            "name" : "Scene",
            "nodes" : [
                0
            ]
        }
    ],
    "nodes" : [
        {
            "mesh" : 0,
            "name" : "StaionBuildingA",
            "rotation" : [
                0,
                -1,
                0,
                1.6292068494294654e-07
            ]
        }
    ],
    "meshes" : [
        {
            "name" : "Cube.017",
            "primitives" : [
                {
                    "attributes" : {
                        "POSITION" : 0,
                        "NORMAL" : 1,
                        "TEXCOORD_0" : 2
                    },
                    "indices" : 3
                }
            ]
        }
    ],
    "accessors" : [
        {
            "bufferView" : 0,
            "componentType" : 5126,
            "count" : 3412,
            "max" : [
                71.23210906982422,
                20.170000076293945,
                33.23208236694336
            ],
            "min" : [
                -71.23210906982422,
                -10.000314712524414,
                -33.23208236694336
            ],
            "type" : "VEC3"
        },
        {
            "bufferView" : 1,
            "componentType" : 5126,
            "count" : 3412,
            "type" : "VEC3"
        },
        {
            "bufferView" : 2,
            "componentType" : 5126,
            "count" : 3412,
            "type" : "VEC2"
        },
        {
            "bufferView" : 3,
            "componentType" : 5123,
            "count" : 7452,
            "type" : "SCALAR"
        }
    ],
    "bufferViews" : [
        {
            "buffer" : 0,
            "byteLength" : 40944,
            "byteOffset" : 0,
            "target" : 34962
        },
        {
            "buffer" : 0,
            "byteLength" : 40944,
            "byteOffset" : 40944,
            "target" : 34962
        },
        {
            "buffer" : 0,
            "byteLength" : 27296,
            "byteOffset" : 81888,
            "target" : 34962
        },
        {
            "buffer" : 0,
            "byteLength" : 14904,
            "byteOffset" : 109184,
            "target" : 34963
        }
    ],
    "buffers" : [
        {
            "byteLength" : 124088,
            "uri" : "StationBuilding.bin"
        }
    ]
}
